# AST/ASF file generated using VICON BodyLanguage
# -----------------------------------------------
:version 1.10
:name VICON
:units
  mass 1.0
  length 0.45
  angle deg
:documentation
   .ast/.asf automatically generated from VICON data using
   VICON BodyBuilder and BodyLanguage model FoxedUp or BRILLIANT.MOD
:root
   order TX TY TZ RX RY RZ
   axis XYZ
   position 0 0 0  
   orientation 0 0 0 
:bonedata
  begin
     id 1 
     name lhipjoint
     direction 0.54267 -0.795011 0.271047 
     length 2.39899 
     axis 0 0 0  XYZ
  end
  begin
     id 2 
     name lfemur
     direction 0.34202 -0.939693 0  
     length 7.49701  
     axis 0 0 20  XYZ
    dof rx ry rz
    limits (-160.0 20.0)
           (-70.0 70.0)
           (-60.0 70.0)
  end
  begin
     id 3 
     name ltibia
     direction 0.34202 -0.939693 0   
     length 8.1668   
     axis 0 0 20   XYZ
    dof rx
    limits (-10.0 170.0)
  end
  begin
     id 4 
     name lfoot
     direction 0.0736283 -0.202292 0.976554   
     length 2.13544   
     axis -90 7.62852e-016 20   XYZ
    dof rx rz
    limits (-45.0 90.0)
           (-70.0 20.0)
  end
  begin
     id 5 
     name ltoes
     direction 1.53557e-011 -4.22024e-011 1   
     length 1.07411   
     axis -90 7.62852e-016 20   XYZ
    dof rx
    limits (-90.0 20.0)
  end
  begin
     id 6 
     name rhipjoint
     direction -0.538061 -0.797813 0.272002   
     length 2.39057  
     axis 0 0 0  XYZ 
  end
  begin
     id 7 
     name rfemur
     direction -0.34202 -0.939693 0   
     length 7.50152   
     axis 0 0 -20   XYZ
    dof rx ry rz
    limits (-160.0 20.0)
           (-70.0 70.0)
           (-70.0 60.0)
  end
  begin
     id 8 
     name rtibia
     direction -0.34202 -0.939693 0   
     length 8.05793   
     axis 0 0 -20   XYZ
    dof rx
    limits (-10.0 170.0)
 end
 begin
     id 9 
     name rfoot
     direction -0.0765195 -0.210236 0.974652   
     length 2.28698  
     axis -90 -7.62852e-016 -20   XYZ
    dof rx rz
    limits (-45.0 90.0)
           (-20.0 70.0)
  end
  begin
     id 10 
     name rtoes
     direction -1.53542e-011 -4.21847e-011 1   
     length 1.14762   
     axis -90 -7.62852e-016 -20   XYZ
    dof rx
    limits (-90.0 20.0)
  end
  begin
     id 11 
     name lowerback
     direction -0.0217239 0.996592 -0.0795765   
     length 2.08176   
     axis 0 0 0   XYZ
    dof rx ry rz
    limits (-20.0 45.0)
           (-30.0 30.0)
           (-30.0 30.0)
  end
  begin
     id 12 
     name upperback
     direction -0.00563773 0.999651 -0.0258155   
     length 2.08898   
     axis 0 0 0   XYZ
    dof rx ry rz
    limits (-20.0 45.0)
           (-30.0 30.0)
           (-30.0 30.0)
  end
  begin
     id 13 
     name thorax
     direction 0.0032706 0.999923 0.0119599   
     length 2.0968   
     axis 0 0 0   XYZ
    dof rx ry rz
    limits (-20.0 45.0)
           (-30.0 30.0)
           (-30.0 30.0)
  end
  begin
     id 14 
     name lowerneck
     direction -0.0285886 0.99568 0.0883427   
     length 1.81272   
     axis 0 0 0   XYZ
    dof rx ry rz
    limits (-20.0 45.0)
           (-30.0 30.0)
           (-30.0 30.0)
  end
  begin
     id 15 
     name upperneck
     direction 0.0807535 0.97985 -0.18268   
     length 1.82518   
     axis 0 0 0   XYZ
    dof rx ry rz
    limits (-20.0 45.0)
           (-30.0 30.0)
           (-30.0 30.0)
  end
  begin
     id 16
     name head
     direction 0.0236605 0.997053 -0.0729767  
     length 1.84443  
     axis 0 0 0   XYZ
    dof rx ry rz
    limits (-20.0 45.0)
           (-30.0 30.0)
           (-30.0 30.0)
  end
  begin
     id 17 
     name lclavicle
     direction 0.918986 0.39378 -0.0200683  
     length 3.27822  
     axis 0 0 0   XYZ
    dof ry rz
    limits (-20.0 10.0)
           (0.0 20.0)
  end
  begin
     id 18 
     name lhumerus
     direction 1 -4.4897e-011 2.09544e-027   
     length 5.5568   
     axis 180 -30 -90   XYZ
    dof rx ry rz
    limits (-60.0 90.0)
           (-90.0 90.0)
           (-90.0 90.0)
  end
  begin
     id 19
     name lradius
     direction 1 -4.48957e-011 -1.27696e-026   
     length 3.63979   
     axis 180 -30 -90   XYZ
    dof rx
    limits (-10.0 170.0)
  end
  begin
     id 20
     name lwrist
     direction 1 -4.49001e-011 -1.49001e-026   
     length 1.8199   
     axis 9.0955e-015 90 90   XYZ
    dof ry
    limits (-180.0 0.0)
 end
  begin
     id 21 
     name lhand
     direction 1 -4.48709e-011 -2.9758e-026   
     length 0.569419   
     axis 1.90115e-014 90 90   XYZ
    dof rx rz
    limits (-90.0 90.0)
           (-45.0 45.0)
  end
  begin
     id 22 
     name lfingers
     direction 1 -4.49175e-011 -5.96505e-026   
     length 0.45908   
     axis 3.80223e-014 90 90   XYZ
    dof rx
    limits (0.0 90.0)
  end
  begin
     id 23
     name lthumb
     direction 0.707107 -6.34864e-011 0.707107   
     length 0.65915   
     axis -90 45 -3.84942e-014   XYZ
    dof rx rz
    limits (-45.0 45.0)
           (-45.0 45.0)
  end
  begin
     id 24 
     name rclavicle
     direction -0.911913 0.396426 -0.106115   
     length 3.46301  
     axis 0 0 0   XYZ 
    dof ry rz
    limits (-10.0 20.0)
           (-20.0 0.0)
  end
  begin
     id 25 
     name rhumerus
     direction -1 -4.48965e-011 7.78516e-028  
     length 5.34339   
     axis 180 30 90   XYZ
    dof rx ry rz
    limits (-90.0 60.0)
           (-90.0 90.0)
           (-90.0 90.0)
  end
  begin
     id 26 
     name rradius
     direction -1 -4.48948e-011 -5.79823e-027   
     length 3.65101   
     axis 180 30 90   XYZ
    dof rx
    limits (-10.0 170.0)
  end
  begin
     id 27 
     name rwrist
     direction -1 -4.48995e-011 -1.48996e-026   
     length 1.8255   
     axis 9.0955e-015 -90 -90   XYZ
    dof ry
    limits (-180.0 0.0)
  end
  begin
     id 28
     name rhand
     direction -1 -4.48957e-011 -2.97937e-026   
     length 0.694249   
     axis 1.90115e-014 -90 -90   XYZ
    dof rx rz
    limits (-90.0 90.0)
           (-45.0 45.0)
  end
  begin
     id 29
     name rfingers
     direction -1 -4.4898e-011 -5.95943e-026   
     length 0.559721   
     axis 3.80223e-014 -90 -90   XYZ
    dof rx
    limits (0.0 90.0)
  end
  begin
     id 30
     name rthumb
     direction -0.707107 -6.34969e-011 0.707107   
     length 0.803651   
     axis -90 -45 3.84942e-014   XYZ
    dof rx rz
    limits (-45.0 45.0)
           (-45.0 45.0)
  end
:hierarchy
  begin
    root lhipjoint rhipjoint lowerback
    lhipjoint lfemur
    lfemur ltibia
    ltibia lfoot
    lfoot ltoes
    rhipjoint rfemur
    rfemur rtibia
    rtibia rfoot
    rfoot rtoes
    lowerback upperback
    upperback thorax
    thorax lowerneck lclavicle rclavicle
    lowerneck upperneck
    upperneck head
    lclavicle lhumerus
    lhumerus lradius
    lradius lwrist
    lwrist lhand lthumb
    lhand lfingers
    rclavicle rhumerus
    rhumerus rradius
    rradius rwrist
    rwrist rhand rthumb
    rhand rfingers
  end

#!OML:ASF H:\Terrain\Walking\May29\JustinRory\rory.ASF
:FULLY-SPECIFIED
:DEGREES
289
root 6.76455 17.6093 8.9693 -176.773 -1.0945 -181.147
lowerback 10.887 0.570672 -2.12512
upperback 4.81957 0.0420376 -0.218322
thorax -1.09193 -0.216384 0.968763
lowerneck -8.20988 -2.86212 -2.80577
upperneck 5.13206 -3.66875 2.21265
head 3.2092 -1.79187 1.02015
rclavicle -7.45443e-016 7.55382e-015
rhumerus -31.4876 22.2059 -61.3448
rradius 140.383
rwrist -33.0413
rhand 13.7339 38.3181
rfingers 7.12502
rthumb 38.6586 12.7011
lclavicle -7.45443e-016 7.55382e-015
lhumerus -28.0281 -23.359 60.858
lradius 143.751
lwrist 33.9786
lhand -13.2828 23.228
lfingers 7.12502
lthumb 12.8206 52.8143
rfemur -23.0934 4.85068 15.8003
rtibia 49.0237
rfoot -22.8652 -9.51356
rtoes 6.79548
lfemur -21.3697 3.62928 -16.9073
ltibia 47.2122
lfoot -23.6402 -4.23082
ltoes -10.6483
290
root 6.76309 17.6247 8.97328 -176.764 -1.10438 -181.148
lowerback 10.7572 0.60622 -2.15925
upperback 4.73906 0.104922 -0.170073
thorax -1.10682 -0.178534 1.03061
lowerneck -8.4368 -2.98488 -3.18496
upperneck 5.63754 -3.82183 2.60223
head 3.45505 -1.85935 1.20447
rclavicle -1.55301e-015 -1.06847e-015
rhumerus -30.0695 25.1738 -57.4222
rradius 139.591
rwrist -32.1316
rhand 10.5312 41.4085
rfingers 7.12502
rthumb 35.63 15.0019
lclavicle -1.55301e-015 -1.06847e-015
lhumerus -26.7312 -28.2372 57.6821
lradius 143.283
lwrist 34.1448
lhand -18.1834 22.2979
lfingers 7.12502
lthumb 8.09336 52.123
rfemur -22.9604 4.93466 15.7746
rtibia 48.6366
rfoot -22.7144 -9.43669
rtoes 7.64137
lfemur -21.3484 3.47391 -16.8994
ltibia 47.0972
lfoot -23.6164 -4.25757
ltoes -9.96634
291
root 6.76072 17.6411 8.97264 -176.866 -0.979966 -181.074
lowerback 10.7798 0.657239 -2.06104
upperback 4.61966 0.19545 -0.172009
thorax -1.24567 -0.123527 0.963126
lowerneck -8.38992 -2.9856 -3.40126
upperneck 5.91992 -3.83217 2.92471
head 3.56104 -1.85745 1.35045
rclavicle -1.22998e-015 -3.72721e-016
rhumerus -28.3255 27.5651 -53.1785
rradius 139.735
rwrist -33.7972
rhand 12.7307 37.5652
rfingers 7.12502
rthumb 37.7114 11.6881
lclavicle -1.22998e-015 -3.72721e-016
lhumerus -25.6635 -33.0515 54.3989
lradius 142.977
lwrist 34.1545
lhand -23.0767 20.524
lfingers 7.12502
lthumb 3.36899 50.4771
rfemur -22.6738 4.85947 15.86
rtibia 48.234
rfoot -22.4674 -9.43282
rtoes 6.90478
lfemur -21.082 3.41164 -16.8412
ltibia 46.8591
lfoot -23.5451 -4.20084
ltoes -9.14838
292
root 6.75815 17.672 8.96851 -177.002 -0.979776 -180.858
lowerback 10.6983 0.636107 -1.92532
upperback 4.61381 0.190783 -0.0190505
thorax -1.20698 -0.123951 1.04561
lowerneck -8.2443 -2.93256 -3.56843
upperneck 5.93218 -3.75066 2.9676
head 3.54009 -1.8207 1.4011
rclavicle 5.24916e-016 2.23633e-016
rhumerus -26.2657 30.1224 -48.7478
rradius 139.614
rwrist -35.5018
rhand 14.4575 36.5912
rfingers 7.12502
rthumb 39.3407 11.1696
lclavicle 5.24916e-016 2.23633e-016
lhumerus -24.4461 -37.4568 51.1885
lradius 142.685
lwrist 34.1925
lhand -27.6824 17.8795
lfingers 7.12502
lthumb -1.07913 47.8565
rfemur -22.2556 4.56877 16.1487
rtibia 47.7893
rfoot -22.0243 -9.64603
rtoes 4.81256
lfemur -20.7653 3.28461 -16.5993
ltibia 46.55
lfoot -23.4429 -4.10893
ltoes -8.14726
293
root 6.75678 17.6991 8.9669 -177.104 -0.873975 -180.838
lowerback 10.5659 0.710586 -2.0156
upperback 4.65794 0.284676 0.0749679
thorax -1.09289 -0.0812039 1.18296
lowerneck -8.53701 -2.95326 -3.54686
upperneck 6.22639 -3.76376 2.79964
head 3.69549 -1.8318 1.33757
rclavicle -3.13086e-015 5.2181e-016
rhumerus -24.1807 32.4925 -44.176
rradius 139.339
rwrist -36.5919
rhand 13.6374 36.1737
rfingers 7.12502
rthumb 38.5675 10.5312
lclavicle -3.13086e-015 5.2181e-016
lhumerus -22.6882 -41.57 47.5005
lradius 142.506
lwrist 34.5874
lhand -31.5402 15.0473
lfingers 7.12502
lthumb -4.80474 44.9728
rfemur -21.9512 4.59357 16.1741
rtibia 47.3706
rfoot -21.7772 -9.56455
rtoes 4.44833
lfemur -20.4268 3.2508 -16.5882
ltibia 46.1984
lfoot -23.409 -3.83207
ltoes -7.28213
294
root 6.75492 17.7144 8.96846 -177.161 -0.676434 -181.06
lowerback 10.5597 0.756669 -2.22153
upperback 4.67198 0.32181 0.0162118
thorax -1.07716 -0.0663804 1.23381
lowerneck -9.33692 -2.93612 -3.47987
upperneck 6.90593 -3.71635 2.56925
head 4.08503 -1.81236 1.24339
rclavicle -2.02512e-015 -6.21202e-016
rhumerus -21.7447 34.5936 -39.4714
rradius 138.9
rwrist -37.6449
rhand 12.9268 35.9926
rfingers 7.12502
rthumb 37.8968 10.1654
lclavicle -2.02512e-015 -6.21202e-016
lhumerus -20.9792 -45.0001 43.5238
lradius 142.575
lwrist 34.5861
lhand -34.2374 12.9533
lfingers 7.12502
lthumb -7.40873 42.8036
rfemur -21.7593 4.84259 15.8917
rtibia 46.9721
rfoot -21.8615 -9.24008
rtoes 5.71792
lfemur -20.1106 3.29115 -16.8913
ltibia 45.8451
lfoot -23.3709 -3.45747
ltoes -7.23903
295
root 6.74817 17.7259 8.96701 -177.109 -0.740829 -181.1
lowerback 10.4857 0.646653 -2.17718
upperback 4.62688 0.189992 0.033313
thorax -1.07848 -0.127823 1.24147
lowerneck -9.65 -2.90943 -3.56165
upperneck 7.16114 -3.64992 2.41937
head 4.2353 -1.78759 1.20888
rclavicle -1.76421e-015 -3.2054e-015
rhumerus -19.182 36.7544 -34.8837
rradius 138.581
rwrist -38.5068
rhand 12.2591 35.7951
rfingers 7.12502
rthumb 37.2657 9.79981
lclavicle -1.76421e-015 -3.2054e-015
lhumerus -19.6635 -47.5417 39.8944
lradius 142.817
lwrist 33.8198
lhand -35.336 12.3211
lfingers 7.12502
lthumb -8.46903 42.1313
rfemur -21.5975 4.66001 15.8722
rtibia 46.5776
rfoot -21.5943 -9.69695
rtoes 3.95603
lfemur -20.0038 3.05144 -16.9845
ltibia 45.5224
lfoot -23.1997 -3.35895
ltoes -6.47208
296
root 6.74144 17.7502 8.96035 -177.036 -0.807334 -180.76
lowerback 10.3192 0.571297 -1.83043
upperback 4.54876 0.145978 0.204071
thorax -1.06616 -0.139576 1.2279
lowerneck -9.4284 -2.9206 -3.77308
upperneck 6.95498 -3.6459 2.47718
head 4.12431 -1.78961 1.26917
rclavicle 2.49723e-015 0
rhumerus -16.8618 38.6817 -30.5071
rradius 138.477
rwrist -38.5532
rhand 12.2298 35.3495
rfingers 7.12502
rthumb 37.238 9.34698
lclavicle 2.49723e-015 0
lhumerus -18.5507 -49.2469 36.649
lradius 143.119
lwrist 32.5502
lhand -34.3899 12.9034
lfingers 7.12502
lthumb -7.55595 42.7484
rfemur -21.4241 4.76134 16.1416
rtibia 46.2038
rfoot -21.5671 -9.08181
rtoes 7.32328
lfemur -19.8686 2.8229 -16.6061
ltibia 45.1807
lfoot -23.0599 -3.60534
ltoes -3.99011
297
root 6.74077 17.7775 8.95604 -177.057 -0.597734 -180.519
lowerback 10.2012 0.615244 -1.69353
upperback 4.54233 0.226433 0.373601
thorax -1.01106 -0.0981887 1.31732
lowerneck -9.52281 -2.8668 -3.95481
upperneck 7.00512 -3.54188 2.42343
head 4.16117 -1.74561 1.29019
rclavicle 1.63997e-015 1.49089e-015
rhumerus -14.5088 39.9442 -26.0861
rradius 138.479
rwrist -38.518
rhand 12.9108 35.5596
rfingers 7.12502
rthumb 37.8816 9.72828
lclavicle 1.63997e-015 1.49089e-015
lhumerus -17.537 -49.7757 33.6868
lradius 143.354
lwrist 31.4475
lhand -31.4537 13.7028
lfingers 7.12502
lthumb -4.72128 43.6302
rfemur -21.2253 4.96737 16.3927
rtibia 45.8501
rfoot -21.0302 -9.05906
rtoes 6.63597
lfemur -19.5619 2.89793 -16.3185
ltibia 44.8157
lfoot -22.9393 -3.82934
ltoes -1.72232
298
root 6.73801 17.8059 8.95426 -177.042 -0.372846 -180.569
lowerback 10.1402 0.613614 -1.73666
upperback 4.59128 0.216493 0.405016
thorax -0.926914 -0.10755 1.37506
lowerneck -9.91162 -2.7561 -4.02458
upperneck 7.17085 -3.35123 2.21859
head 4.28848 -1.66189 1.24338
rclavicle -1.76421e-015 -4.47266e-015
rhumerus -12.1853 40.4108 -21.9958
rradius 138.591
rwrist -38.7657
rhand 13.547 35.8219
rfingers 7.12502
rthumb 38.4823 10.1556
lclavicle -1.76421e-015 -4.47266e-015
lhumerus -16.8689 -48.8805 31.1462
lradius 143.576
lwrist 31.1877
lhand -26.3929 14.245
lfingers 7.12502
lthumb 0.16629 44.2246
rfemur -21.1182 5.14858 16.3306
rtibia 45.5106
rfoot -20.6698 -8.99733
rtoes 6.41279
lfemur -19.333 2.98408 -16.411
ltibia 44.3832
lfoot -22.7341 -3.5794
ltoes -2.01679
299
root 6.73045 17.8357 8.95173 -176.872 -0.370683 -180.638
lowerback 10.0394 0.56021 -1.6827
upperback 4.57078 0.157381 0.392237
thorax -0.890728 -0.134086 1.33772
lowerneck -10.0678 -2.69162 -3.94493
upperneck 7.01063 -3.2476 2.0224
head 4.25103 -1.616 1.16825
rclavicle -1.93815e-015 -6.36111e-015
rhumerus -10.59 40.0757 -18.8189
rradius 138.666
rwrist -38.8064
rhand 14.5681 35.5895
rfingers 7.12502
rthumb 39.445 10.1984
lclavicle -1.93815e-015 -6.36111e-015
lhumerus -16.3921 -46.8832 29.1068
lradius 143.781
lwrist 31.815
lhand -18.9284 14.6545
lfingers 7.12502
lthumb 7.37422 44.506
rfemur -21.1029 5.11118 16.1908
rtibia 45.128
rfoot -20.6486 -8.56612
rtoes 7.98007
lfemur -19.2996 2.86619 -16.5621
ltibia 43.8994
lfoot -22.5382 -3.13656
ltoes -3.49093
300
root 6.72376 17.8652 8.94525 -176.71 -0.343438 -180.62
lowerback 9.82842 0.570297 -1.6793
upperback 4.56179 0.183714 0.50564
thorax -0.785799 -0.11987 1.45004
lowerneck -10.2201 -2.64154 -3.81687
upperneck 6.88738 -3.15431 1.61867
head 4.22037 -1.5853 1.01332
rclavicle -2.08724e-015 -1.09332e-015
rhumerus -9.58641 39.3238 -16.335
rradius 138.652
rwrist -38.7867
rhand 15.3908 36.0823
rfingers 7.12502
rthumb 40.2194 10.9228
lclavicle -2.08724e-015 -1.09332e-015
lhumerus -16.0983 -43.9266 27.8352
lradius 143.795
lwrist 32.9518
lhand -9.50236 15.0993
lfingers 7.12502
lthumb 16.4628 44.4208
rfemur -20.992 5.00421 16.1418
rtibia 44.6032
rfoot -20.6557 -8.20367
rtoes 8.83935
lfemur -19.2028 2.76745 -16.5976
ltibia 43.4103
lfoot -22.4009 -2.96867
ltoes -3.59156
301
root 6.7141 17.8934 8.93453 -176.705 -0.276732 -180.707
lowerback 9.71877 0.546891 -1.66268
upperback 4.60791 0.153021 0.518214
thorax -0.676861 -0.137846 1.45657
lowerneck -10.3025 -2.54849 -3.71011
upperneck 6.74693 -3.01399 1.31697
head 4.17201 -1.5274 0.90129
rclavicle -6.95746e-016 -3.77691e-015
rhumerus -9.00124 38.2885 -14.7258
rradius 138.692
rwrist -39.208
rhand 15.6641 36.6375
rfingers 7.12502
rthumb 40.4764 11.5569
lclavicle -6.95746e-016 -3.77691e-015
lhumerus -16.2542 -40.1197 27.1131
lradius 143.681
lwrist 34.2958
lhand 1.37573 15.6866
lfingers 7.12502
lthumb 26.9074 43.7913
rfemur -20.6431 4.90345 16.0025
rtibia 43.9169
rfoot -20.5596 -8.2117
rtoes 8.50017
lfemur -18.8912 2.63913 -16.7413
ltibia 42.959
lfoot -22.3172 -2.90524
ltoes -2.80236
302
root 6.7054 17.9254 8.92428 -176.666 -0.117789 -180.732
lowerback 9.71666 0.546479 -1.42865
upperback 4.56067 0.176165 0.368141
thorax -0.724358 -0.118359 1.16761
lowerneck -9.93599 -2.49271 -3.40754
upperneck 6.26323 -2.98244 1.20939
head 3.91466 -1.50669 0.817091
rclavicle -2.18663e-015 -3.08116e-015
rhumerus -9.28381 36.7924 -14.3178
rradius 138.828
rwrist -39.7353
rhand 15.4407 36.2469
rfingers 7.12502
rthumb 40.2663 11.1018
lclavicle -2.18663e-015 -3.08116e-015
lhumerus -16.5676 -36.0028 26.6129
lradius 143.486
lwrist 35.6521
lhand 12.203 16.2742
lfingers 7.12502
lthumb 37.2127 42.2834
rfemur -20.3094 4.92742 15.9617
rtibia 43.168
rfoot -20.1884 -8.46216
rtoes 7.68212
lfemur -18.5939 2.59567 -16.809
ltibia 42.5095
lfoot -22.2095 -2.7141
ltoes -2.63156
303
root 6.70054 17.9542 8.91346 -176.396 0.148238 -180.433
lowerback 9.58123 0.0858071 -1.04361
upperback 4.37825 0.434475 0.273678
thorax -0.836928 0.374056 0.822661
lowerneck -9.53151 -2.49933 -3.04837
upperneck 5.77529 -3.03993 1.08447
head 3.65189 -1.53032 0.712638
rclavicle -8.69683e-016 -1.39149e-015
rhumerus -10.0989 34.8156 -14.5698
rradius 139.063
rwrist -40.1877
rhand 15.0191 35.7198
rfingers 7.12502
rthumb 39.8696 10.4546
lclavicle -8.69683e-016 -1.39149e-015
lhumerus -17.0355 -31.7395 26.714
lradius 143.212
lwrist 36.9347
lhand 4.81482 17.2481
lfingers 7.12502
lthumb 30.1933 44.8001
rfemur -20.2232 5.19141 16.293
rtibia 42.4467
rfoot -19.6916 -8.64821
rtoes 6.81772
lfemur -18.576 2.80067 -16.522
ltibia 42.0206
lfoot -21.9992 -2.44851
ltoes -3.20276
